<?xml version="1.0" encoding="utf-8"?>
<!-- Generator: Adobe Illustrator 16.0.0, SVG Export Plug-In . SVG Version: 6.00 Build 0)  -->
<!DOCTYPE svg PUBLIC "-//W3C//DTD SVG 1.1//EN" "http://www.w3.org/Graphics/SVG/1.1/DTD/svg11.dtd">
<svg version="1.1" id="Layer_1" xmlns="http://www.w3.org/2000/svg" xmlns:xlink="http://www.w3.org/1999/xlink" x="0px" y="0px"
	 width="600px" height="433.333px" viewBox="0 0 600 433.333" enable-background="new 0 0 600 433.333" xml:space="preserve">
<g>
	<defs>
		<rect id="SVGID_1_" width="600" height="433.333"/>
	</defs>
	<clipPath id="SVGID_2_">
		<use xlink:href="#SVGID_1_"  overflow="visible"/>
	</clipPath>
	<path clip-path="url(#SVGID_2_)" d="M278.923,208.324c2.876,5.876,4.496,12.474,4.496,19.445c0,7.429-1.843,14.43-5.081,20.587
		c9.455,1.346,18.033-8.129,14.54-17.185c-0.184-0.478-0.431-0.999-0.726-1.553c2.642,0.305,5.464,0.499,8.38,0.499
		c2.95,0,5.915-0.124,8.76-0.32c-0.254,0.488-0.466,0.947-0.63,1.374c-3.889,10.079,7.175,20.672,17.759,16.296
		c-2.954-5.939-4.625-12.626-4.625-19.698c0-6.923,1.596-13.479,4.435-19.325c-7.029-2.314-17.347-5.24-24.577-5.24
		C293.928,203.204,284.279,206.334,278.923,208.324 M311.221,216.023c0,5.275-4.292,9.567-9.567,9.567s-9.567-4.292-9.567-9.567
		s4.292-9.567,9.567-9.567S311.221,210.748,311.221,216.023"/>
	<path clip-path="url(#SVGID_2_)" d="M301.653,223.677c4.222,0,7.654-3.434,7.654-7.654s-3.433-7.654-7.654-7.654
		c-4.221,0-7.654,3.434-7.654,7.654S297.433,223.677,301.653,223.677"/>
	<path clip-path="url(#SVGID_2_)" d="M359.714,306.282c0.186-1.421-0.817-2.723-2.239-2.907c-1.418-0.188-2.723,0.817-2.907,2.238
		c-0.005,0.039-0.302,2.059-2.002,4.2c-2.12-3.092-19.248-26.495-51.433-26.495c-17.308,0-30.315,7.013-38.18,12.895
		c-5.742,4.295-11.393,10.204-13.204,13.561c-1.621-2.061-1.953-4.004-1.98-4.181c-0.194-1.41-1.487-2.403-2.905-2.218
		c-1.421,0.185-2.424,1.486-2.239,2.907c0.059,0.456,1.608,11.189,15.249,13.398c0.141,0.024,0.281,0.034,0.419,0.034
		c1.25,0,2.352-0.906,2.558-2.182c0.23-1.414-0.731-2.747-2.146-2.976c-1.942-0.315-3.537-0.852-4.856-1.509
		c0.164-0.228,0.293-0.48,0.377-0.754c1.771-3.34,18.834-23.785,46.907-23.785c30.85,0,47.131,24.203,47.29,24.445
		c0.022,0.032,0.048,0.062,0.071,0.094c-1.319,0.657-2.916,1.193-4.859,1.509c-1.415,0.229-2.377,1.562-2.146,2.976
		c0.206,1.275,1.308,2.182,2.558,2.182c0.138,0,0.278-0.01,0.418-0.034C358.106,317.472,359.655,306.738,359.714,306.282"/>
	<path clip-path="url(#SVGID_2_)" d="M240.297,175.351c7.814,0.796,26.905,7.284,28.816,8.13c1.201,0.803,2.337,1.625,3.418,2.45
		c-0.835,3.675,0.317,10.382,9.697,14.493c-0.34,0.255-0.698,0.472-1.077,0.642c-2.469,1.106-5.167,0.174-5.432,0.078l-1.852-0.832
		c1.423,1.801,2.71,3.713,3.844,5.724c1.529,0.094,3.369-0.059,5.206-0.869c1.189-0.524,2.241-1.268,3.17-2.204
		c3.587-1.088,6.845-5.504,7.501-6.44c0.55-0.782,0.54-1.827-0.024-2.598c-0.381-0.522-9.456-12.866-20.339-20.103
		c-1.092-0.726-20.458-9.916-29.275-10.815c-9.262-0.948-45.489,14.505-48.263,15.984c-1.705,0.909-4.86,6.044-21.099,34.34
		c-3.377,5.883-6.989,12.177-10.563,18.333c-11.196,18.464-22.578,36.979-27.489,42.949c-0.783,0.951-0.646,2.358,0.306,3.142
		c0.416,0.342,0.918,0.508,1.417,0.508c0.645,0,1.284-0.277,1.726-0.813c1.441-1.752,3.397-4.511,5.713-7.979
		c4.416-5.403,13.048-19.809,22.218-35.613c1.783-2.939,3.561-5.878,5.306-8.763c9.164-15.147,19.533-32.285,21.54-34.352
		C199.062,188.568,232.842,174.589,240.297,175.351 M276.983,189.618c2.749,2.471,4.865,4.745,6.275,6.372
		C279.006,193.949,277.471,191.51,276.983,189.618 M197.976,182.834c4.357-2.197,38.081-16.139,45.522-15.385
		c7.618,0.776,25.674,9.201,27.295,10.118c8.191,5.459,15.539,14.331,18.154,17.667c-0.089,0.106-0.18,0.212-0.272,0.318
		c-1.212-1.601-7.29-9.273-17.195-15.86c-1.487-0.989-22.365-7.93-30.729-8.783c-7.73-0.792-34.275,9.855-44.432,14.248
		C197.067,184.005,197.639,183.196,197.976,182.834"/>
	<path clip-path="url(#SVGID_2_)" d="M196.412,240.112c-6.577,10.527-11.848,18.356-11.953,18.512
		c-0.689,1.022-0.42,2.409,0.602,3.1c1.022,0.688,2.41,0.42,3.099-0.603c0.096-0.141,4.442-6.597,10.174-15.677
		C197.583,243.722,196.942,241.94,196.412,240.112"/>
	<path clip-path="url(#SVGID_2_)" d="M268.845,272.729c4.601-3.374,7.215-7.123,7.768-11.141c0.36-2.62-0.175-5.265-1.586-7.895
		c-0.986,1.365-2.038,2.679-3.169,3.921c0.364,1.151,0.482,2.275,0.332,3.364c-0.382,2.774-2.396,5.518-5.985,8.149
		c-2.136,1.566-6.732,3.162-12.054,5.011c-9.542,3.313-21.417,7.438-30.286,14.849c-12.86,10.746-30.85,9.701-31.029,9.691
		c-1.232-0.078-2.293,0.847-2.376,2.076s0.847,2.295,2.077,2.378c0.142,0.01,0.851,0.053,2.001,0.053
		c5.384,0,20.436-0.951,32.189-10.772c8.243-6.888,19.691-10.862,28.889-14.057C261.511,276.309,266.168,274.691,268.845,272.729"/>
	<path clip-path="url(#SVGID_2_)" d="M239.036,185.618c-23.28,0-42.152,18.872-42.152,42.15c0,23.28,18.872,42.152,42.152,42.152
		c23.28,0,42.152-18.872,42.152-42.152C281.188,204.49,262.316,185.618,239.036,185.618 M217.287,214.088
		c1.257,0,2.276,1.019,2.276,2.275c0,1.257-1.019,2.276-2.276,2.276c-1.257,0-2.275-1.019-2.275-2.276
		C215.012,215.107,216.03,214.088,217.287,214.088 M239.036,255.902c-15.409,0-27.959-12.454-28.125-27.825
		c2.156,3.528,6.032,5.891,10.469,5.891c6.779,0,12.274-5.495,12.274-12.272c0-6.779-5.495-12.274-12.274-12.274
		c-1.516,0-2.961,0.288-4.301,0.79c5.16-6.439,13.082-10.574,21.957-10.574c15.512,0,28.132,12.62,28.132,28.131
		C267.168,243.282,254.548,255.902,239.036,255.902"/>
	<path clip-path="url(#SVGID_2_)" d="M408.803,240.112c-0.529,1.828-1.171,3.609-1.922,5.332
		c5.732,9.08,10.078,15.535,10.174,15.677c0.69,1.022,2.077,1.291,3.1,0.603c1.021-0.69,1.291-2.077,0.602-3.1
		C420.651,258.469,415.38,250.641,408.803,240.112"/>
	<path clip-path="url(#SVGID_2_)" d="M441.191,231.668c-3.575-6.158-7.188-12.453-10.564-18.337
		c-16.24-28.296-19.396-33.431-21.1-34.34c-2.774-1.48-39.032-16.924-48.263-15.984c-8.817,0.899-28.183,10.089-29.276,10.815
		c-10.882,7.237-19.958,19.581-20.339,20.103c-0.562,0.771-0.572,1.816-0.022,2.598c0.655,0.936,3.914,5.352,7.501,6.44
		c0.928,0.935,1.98,1.68,3.17,2.204c1.836,0.809,3.677,0.962,5.206,0.868c1.134-2.01,2.421-3.922,3.844-5.723l-1.848,0.829
		c-0.309,0.112-2.989,1.024-5.437-0.075c-0.197-0.088-0.387-0.191-0.573-0.302c9.139-4.303,9.926-11.151,8.924-14.627
		c1.159-0.894,2.385-1.786,3.688-2.656c1.91-0.846,21.001-7.334,28.815-8.13c7.467-0.761,41.236,13.217,45.536,15.391
		c2.008,2.07,12.376,19.207,21.538,34.352c1.745,2.886,3.522,5.821,5.306,8.762c9.171,15.805,17.804,30.213,22.22,35.616
		c2.316,3.468,4.272,6.226,5.713,7.978c0.442,0.537,1.081,0.813,1.726,0.813c0.499,0,1.002-0.166,1.417-0.508
		c0.951-0.783,1.089-2.189,0.306-3.142C463.768,268.644,452.388,250.131,441.191,231.668 M321.167,196.915
		c1.329-1.602,3.706-4.278,7-7.244C327.821,191.699,326.332,194.619,321.167,196.915 M364.465,170.909
		c-8.364,0.852-29.242,7.794-30.729,8.783c-9.903,6.586-15.981,14.258-17.194,15.859c-0.093-0.106-0.184-0.212-0.272-0.317
		c2.616-3.337,9.963-12.209,18.153-17.668c1.624-0.918,19.678-9.341,27.295-10.117c7.458-0.767,41.166,13.188,45.521,15.385
		c0.339,0.362,0.909,1.172,1.659,2.325C398.737,180.768,372.178,170.125,364.465,170.909"/>
	<path clip-path="url(#SVGID_2_)" d="M412.379,298.678c-0.182,0.012-18.169,1.055-31.029-9.69
		c-8.869-7.411-20.744-11.535-30.286-14.849c-5.322-1.849-9.918-3.444-12.054-5.011c-3.589-2.632-5.603-5.374-5.985-8.15
		c-0.149-1.088-0.032-2.212,0.333-3.362c-1.131-1.243-2.184-2.557-3.17-3.921c-1.411,2.629-1.947,5.272-1.586,7.893
		c0.554,4.02,3.167,7.768,7.77,11.141c2.676,1.964,7.333,3.581,13.229,5.629c9.198,3.193,20.646,7.17,28.888,14.058
		c11.754,9.821,26.807,10.771,32.189,10.771c1.15,0,1.859-0.044,2.001-0.053c1.229-0.084,2.157-1.146,2.075-2.376
		C414.671,299.528,413.608,298.601,412.379,298.678"/>
	<path clip-path="url(#SVGID_2_)" d="M340.107,260.891c18.292,14.398,44.794,11.243,59.193-7.049
		c14.399-18.293,11.242-44.795-7.05-59.194c-18.293-14.399-44.794-11.242-59.193,7.05
		C318.659,219.99,321.814,246.491,340.107,260.891 M344.865,214.087c1.257,0,2.275,1.019,2.275,2.276s-1.019,2.276-2.275,2.276
		c-1.258,0-2.276-1.02-2.276-2.276S343.607,214.087,344.865,214.087 M340.957,231.267c5.326,4.193,13.043,3.273,17.235-2.053
		s3.273-13.043-2.053-17.235c-3.487-2.745-7.994-3.286-11.87-1.846c9.638-11.976,27.202-14,39.311-4.469
		c12.188,9.595,14.3,27.317,4.705,39.507c-9.596,12.188-27.317,14.299-39.507,4.705c-6.974-5.489-10.642-13.64-10.713-21.891
		C338.808,229.209,339.766,230.329,340.957,231.267"/>
	<path clip-path="url(#SVGID_2_)" d="M124.505,151.255l-0.033-0.024c-2.15-1.606-4.23-0.603-6.779,1.611
		c-1.55,1.322-2.074,1.544-2.6,1.152l-0.033-0.025c-0.41-0.306-0.456-0.929,0.12-1.701c0.76-1.017,2.013-1.872,3.536-2.371
		l-1.059-3.272c-1.933,0.5-3.599,1.634-5.058,3.587c-2.06,2.758-1.78,5.601,0.354,7.195l0.033,0.025
		c2.363,1.766,4.463,0.393,6.848-1.636c1.526-1.289,2.07-1.471,2.547-1.115l0.033,0.024c0.492,0.368,0.444,1.049-0.194,1.902
		c-0.993,1.33-2.413,2.238-4.162,2.696l0.793,3.355c2.319-0.468,4.405-1.927,5.926-3.962
		C126.862,155.906,126.852,153.009,124.505,151.255"/>
	<path clip-path="url(#SVGID_2_)" d="M136.047,134.108l-0.03-0.028c-3.039-2.775-7.683-2.58-10.666,0.686s-2.755,7.967,0.283,10.742
		l0.031,0.027c3.039,2.777,7.683,2.581,10.666-0.685S139.086,136.884,136.047,134.108 M133.712,142.403
		c-1.464,1.603-3.802,1.491-5.329,0.096l-0.031-0.027c-1.527-1.395-1.846-3.656-0.383-5.259c1.478-1.618,3.817-1.506,5.343-0.111
		l0.031,0.028C134.87,138.524,135.19,140.785,133.712,142.403"/>
	<path clip-path="url(#SVGID_2_)" d="M148.023,132.638l-2.925-3.209l1.256-1.145l0.03-0.027l5.059,1.263l3.39-3.09l-5.893-1.389
		c0.806-1.76,0.689-3.621-0.787-5.24l-0.028-0.031c-0.951-1.044-2.014-1.572-3.186-1.611c-1.374-0.078-2.88,0.519-4.499,1.995
		l-5.01,4.566l9.656,10.594L148.023,132.638z M143.001,127.129l-2.317-2.543l1.922-1.752c0.984-0.897,1.975-1.025,2.734-0.192
		l0.027,0.03c0.704,0.772,0.57,1.781-0.429,2.691L143.001,127.129z"/>
	<path clip-path="url(#SVGID_2_)" d="M161.608,121.021l-2.647-3.442l1.348-1.036l0.032-0.025l4.936,1.682l3.637-2.797l-5.758-1.877
		c0.951-1.686,0.99-3.551-0.346-5.288l-0.025-0.033c-0.862-1.12-1.877-1.735-3.042-1.872c-1.362-0.192-2.913,0.277-4.65,1.613
		l-5.374,4.133l8.739,11.364L161.608,121.021z M154.966,112.384l2.062-1.586c1.055-0.811,2.054-0.856,2.741,0.037l0.025,0.032
		c0.636,0.828,0.419,1.822-0.653,2.647l-2.078,1.598L154.966,112.384z"/>
	<polygon clip-path="url(#SVGID_2_)" points="175.837,110.759 179.189,108.588 176.239,104.034 175.968,93.596 172.239,96.011 
		172.585,102.008 167.272,99.228 163.473,101.688 172.92,106.256 	"/>
	<path clip-path="url(#SVGID_2_)" d="M186.428,104.158c0.589,0.937,0.295,1.863-0.811,2.691l1.013,1.142
		c2.176-1.351,3.091-3.085,1.576-5.711l-1.628-2.82l-3.512,2.027l1.996,3.459L186.428,104.158z"/>
	<polygon clip-path="url(#SVGID_2_)" points="205.083,94.559 208.731,92.937 206.526,87.98 207.884,77.63 203.824,79.435 
		203.233,85.412 198.418,81.839 194.284,83.678 202.903,89.658 	"/>
	<path clip-path="url(#SVGID_2_)" d="M213.764,83.025c1.361,3.886,5.544,5.915,9.719,4.452c4.176-1.463,6.204-5.71,4.843-9.596
		l-0.014-0.038c-1.361-3.886-5.544-5.915-9.719-4.452c-4.176,1.462-6.204,5.71-4.843,9.596L213.764,83.025z M219.739,76.787
		c2.068-0.724,4.075,0.482,4.759,2.435l0.014,0.038c0.684,1.953-0.107,4.096-2.175,4.821c-2.049,0.718-4.056-0.49-4.74-2.442
		l-0.013-0.039C216.9,79.648,217.69,77.505,219.739,76.787"/>
	<path clip-path="url(#SVGID_2_)" d="M242.04,81.858c3.951-1.007,6.011-3.625,4.867-8.111l-1.963-7.703l-3.911,0.997l1.994,7.822
		c0.495,1.945-0.284,3.116-1.833,3.511c-1.548,0.394-2.803-0.3-3.314-2.305l-1.969-7.723L232,69.343l1.988,7.802
		C235.097,81.492,238.088,82.865,242.04,81.858"/>
	<path clip-path="url(#SVGID_2_)" d="M257.822,78.148l-0.735-4.278l1.674-0.288l0.041-0.007l3.58,3.789l4.521-0.777l-4.217-4.344
		c1.628-1.048,2.532-2.679,2.161-4.838l-0.007-0.041c-0.239-1.392-0.85-2.409-1.817-3.074c-1.114-0.805-2.704-1.114-4.863-0.743
		l-6.68,1.148l2.427,14.125L257.822,78.148z M258.54,66.972c1.311-0.225,2.216,0.201,2.407,1.311l0.006,0.04
		c0.178,1.029-0.479,1.807-1.81,2.035l-2.583,0.444l-0.583-3.39L258.54,66.972z"/>
	<path clip-path="url(#SVGID_2_)" d="M286.162,71.698c-1.656,0.103-3.268-0.391-4.749-1.427l-2.043,2.776
		c1.857,1.464,4.32,2.111,6.855,1.952c3.476-0.218,5.678-2.1,5.495-5.024l-0.003-0.041c-0.168-2.679-2.279-3.614-5.615-4.124
		c-2.012-0.325-2.521-0.581-2.562-1.235l-0.002-0.041c-0.032-0.511,0.413-0.95,1.374-1.01c1.267-0.079,2.729,0.322,4.095,1.16
		l1.808-2.925c-1.632-1.15-3.574-1.686-6.007-1.533c-3.436,0.215-5.421,2.269-5.255,4.927l0.003,0.04
		c0.184,2.945,2.589,3.657,5.679,4.161c1.971,0.329,2.462,0.626,2.499,1.219l0.002,0.041
		C287.775,71.227,287.225,71.631,286.162,71.698"/>
	<polygon clip-path="url(#SVGID_2_)" points="308.786,70.971 301.087,70.859 301.119,68.586 307.999,68.687 308.045,65.553 
		301.165,65.454 301.195,63.283 308.794,63.394 308.842,60.016 297.313,59.848 297.104,74.182 308.736,74.351 	"/>
	<path clip-path="url(#SVGID_2_)" d="M318.27,72.154l5.518,0.389l0.86,2.628l4.251,0.301l-5.071-14.835l-3.821-0.27l-7.106,13.974
		l4.168,0.295L318.27,72.154z M321.554,65.199l1.307,4.179l-3.208-0.227L321.554,65.199z"/>
	<path clip-path="url(#SVGID_2_)" d="M338.025,72.333l1.681,0.25l0.041,0.006l2.219,4.718l4.537,0.673l-2.649-5.444
		c1.873-0.488,3.241-1.755,3.562-3.922l0.007-0.04c0.207-1.398-0.057-2.554-0.767-3.488c-0.808-1.114-2.222-1.903-4.389-2.225
		l-6.704-0.994l-2.105,14.177l3.931,0.583L338.025,72.333z M338.987,65.852l2.572,0.382c1.317,0.195,2.042,0.883,1.878,1.997
		l-0.007,0.04c-0.153,1.033-1.02,1.567-2.355,1.369l-2.593-0.385L338.987,65.852z"/>
	<path clip-path="url(#SVGID_2_)" d="M357.807,80.689c3.096,0.706,5.178-0.227,6.91-1.744l-2.441-2.742
		c-1.071,0.827-2.085,1.311-3.542,0.978c-1.957-0.446-2.962-2.398-2.484-4.495l0.009-0.04c0.464-2.037,2.221-3.38,4.179-2.934
		c1.338,0.305,2.109,1.154,2.682,2.334l3.43-1.591c-0.847-2-2.41-3.617-5.267-4.268c-4.233-0.966-8.098,1.515-9.027,5.588
		l-0.008,0.04C351.293,75.989,353.813,79.778,357.807,80.689"/>
	<polygon clip-path="url(#SVGID_2_)" points="374.188,79.121 379.05,80.659 377.407,85.852 381.194,87.05 385.519,73.383 
		381.73,72.185 380.112,77.301 375.25,75.763 376.868,70.646 373.08,69.449 368.758,83.116 372.546,84.313 	"/>
	<polygon clip-path="url(#SVGID_2_)" points="402.291,95.777 404.562,90.848 413.239,85.037 409.203,83.176 404.32,86.676 
		403.826,80.698 399.716,78.804 400.909,89.232 398.663,94.105 	"/>
	
		<rect x="409.217" y="92.905" transform="matrix(-0.4766 0.8791 -0.8791 -0.4766 698.2544 -225.9305)" clip-path="url(#SVGID_2_)" width="14.338" height="3.993"/>
	<polygon clip-path="url(#SVGID_2_)" points="429.698,111.196 431.492,108.333 424.969,104.242 426.177,102.317 432.008,105.973 
		433.671,103.317 427.842,99.663 428.994,97.822 435.432,101.858 437.227,98.996 427.458,92.872 419.843,105.018 	"/>
	<polygon clip-path="url(#SVGID_2_)" points="442.78,120.649 444.847,117.848 439.262,113.727 445.706,104.996 442.509,102.637 
		433.999,114.169 	"/>
	<path clip-path="url(#SVGID_2_)" d="M461.606,127.189l0.026-0.031c2.719-3.12,2.416-7.295-1.446-10.658l-4.171-3.633L446.6,123.68
		l4.107,3.579C454.601,130.649,458.89,130.309,461.606,127.189 M456.698,118.134l1.22,1.063c1.793,1.56,2.107,3.6,0.601,5.33
		l-0.027,0.031c-1.52,1.746-3.569,1.699-5.362,0.138l-1.221-1.063L456.698,118.134z"/>
	<polygon clip-path="url(#SVGID_2_)" points="467.421,135.157 472.211,140.097 474.46,137.916 469.671,132.976 471.229,131.465 
		476.518,136.919 478.943,134.567 470.917,126.289 460.626,136.269 468.723,144.62 471.149,142.268 465.789,136.739 	"/>
	<path clip-path="url(#SVGID_2_)" d="M486.808,143.761l-3.475-4.304l-11.157,9.011l3.424,4.24c3.244,4.016,7.527,4.428,10.746,1.828
		l0.033-0.026C489.598,151.909,490.025,147.745,486.808,143.761 M483.769,151.377l-0.031,0.026
		c-1.801,1.454-3.812,1.051-5.306-0.798l-1.017-1.259l5.674-4.583l1.016,1.26C485.599,147.871,485.554,149.935,483.769,151.377"/>
	<polygon clip-path="url(#SVGID_2_)" points="228.299,132.194 221.899,116.42 217.497,116.42 217.497,146.012 222.144,146.012 
		222.144,128.648 228.788,146.012 232.945,146.012 232.945,116.42 228.299,116.42 	"/>
	<path clip-path="url(#SVGID_2_)" d="M237.796,126.488v10.067c0,3.302,0.693,9.987,7.826,9.987c6.888,0,7.825-5.747,7.825-10.15
		v-10.394c0-3.097-0.326-10.108-7.703-10.108C238.122,115.89,237.796,122.534,237.796,126.488 M248.434,124.735v11.617
		c0,2.404,0,5.624-2.771,5.624c-2.854,0-2.854-3.179-2.854-5.706v-11.331c0-1.671,0.082-4.525,2.854-4.525
		C248.23,120.414,248.434,122.738,248.434,124.735"/>
	<path clip-path="url(#SVGID_2_)" d="M272.685,133.906h2.527l3.709,12.105h5.136l-4.647-13.002c2.201-0.938,4.076-3.057,4.076-7.786
		c0-7.662-4.402-8.804-8.885-8.804h-6.767v29.592h4.851V133.906z M272.685,120.7c3.791,0,5.788,0,5.788,4.28
		c0,3.383-1.142,4.525-4.036,4.525c-0.57,0-1.182-0.041-1.752-0.082V120.7z"/>
	<polygon clip-path="url(#SVGID_2_)" points="301.91,120.944 301.91,116.42 288.132,116.42 288.132,146.011 302.236,146.011 
		302.236,141.568 293.106,141.568 293.106,132.927 299.913,132.927 299.913,128.485 293.106,128.485 293.106,120.944 	"/>
	<path clip-path="url(#SVGID_2_)" d="M305.088,123.268c0,8.315,10.353,10.72,10.353,15.937c0,1.834-1.345,2.935-2.771,2.935
		c-2.568,0-3.017-2.446-3.547-4.565l-4.604,0.733c0.448,3.017,1.752,8.234,7.947,8.234c4.524,0,7.704-3.342,7.704-7.622
		c0-8.478-10.394-10.476-10.394-15.897c0-1.712,1.1-2.771,2.567-2.771c2.039,0,2.771,2.119,2.894,3.627l4.647-0.53
		c-0.204-1.834-1.224-7.459-7.46-7.459C308.145,115.89,305.088,119.11,305.088,123.268"/>
	<path clip-path="url(#SVGID_2_)" d="M328.891,116.42h-4.973v21.073c0,4.117,1.102,9.049,7.663,9.049
		c7.541,0,7.826-5.91,7.826-10.353V116.42h-5.014v21.847c0,2.324-0.733,3.669-2.568,3.669c-2.201,0-2.935-1.427-2.935-3.465V116.42z
		"/>
	<polygon clip-path="url(#SVGID_2_)" points="344.176,116.42 344.176,146.012 357.137,146.012 357.137,141.528 349.148,141.528 
		349.148,116.42 	"/>
	<polygon clip-path="url(#SVGID_2_)" points="366.148,146.012 366.148,121.025 371.08,121.025 371.161,116.419 356.203,116.419 
		356.203,121.025 361.257,121.025 361.257,146.012 	"/>
	<path clip-path="url(#SVGID_2_)" d="M379.472,120.251c2.038,0,2.771,2.12,2.893,3.628l4.647-0.53
		c-0.204-1.835-1.224-7.46-7.458-7.46c-4.28,0-7.337,3.221-7.337,7.378c0,8.315,10.352,10.72,10.352,15.937
		c0,1.835-1.345,2.935-2.771,2.935c-2.568,0-3.018-2.446-3.546-4.565l-4.606,0.734c0.449,3.016,1.753,8.233,7.948,8.233
		c4.524,0,7.704-3.342,7.704-7.622c0-8.478-10.395-10.475-10.395-15.896C376.903,121.312,378.004,120.251,379.472,120.251"/>
	<polygon clip-path="url(#SVGID_2_)" points="239.072,352.82 241.872,354.085 238.678,361.152 241.264,362.321 244.459,355.254 
		247.259,356.521 248.283,354.253 240.096,350.554 	"/>
	<path clip-path="url(#SVGID_2_)" d="M259.114,358.181l-4.6-1.507l-3.187,9.729l2.696,0.884l0.965-2.946l1.154,0.378l0.028,0.01
		l0.994,3.589l3.113,1.02l-1.21-4.152c1.378-0.118,2.494-0.845,2.981-2.332l0.009-0.028c0.314-0.959,0.268-1.806-0.12-2.548
		C261.503,359.394,260.603,358.668,259.114,358.181 M259.292,362.103l-0.009,0.028c-0.232,0.708-0.906,0.979-1.823,0.68l-1.78-0.583
		l0.765-2.336l1.766,0.579C259.114,360.767,259.542,361.338,259.292,362.103"/>
	<polygon clip-path="url(#SVGID_2_)" points="272.988,365.73 271.693,361.646 268.529,360.982 271.021,368.052 270.233,371.803 
		273.025,372.39 273.821,368.595 278.938,363.167 275.831,362.517 	"/>
	<path clip-path="url(#SVGID_2_)" d="M298.29,364.875l-4.496,10.255l2.984,0.04l0.756-1.818l3.951,0.053l0.722,1.838l3.043,0.04
		l-4.223-10.371L298.29,364.875z M298.397,371.153l1.194-2.896l1.103,2.927L298.397,371.153z"/>
	<path clip-path="url(#SVGID_2_)" d="M316.489,368.408l0.226,2.065l2.006-0.221l0.136,1.236c-0.392,0.322-0.898,0.525-1.582,0.599
		c-1.614,0.178-2.892-0.874-3.071-2.517l-0.004-0.03c-0.17-1.555,0.828-2.915,2.298-3.076c1.003-0.109,1.768,0.159,2.562,0.691
		l1.439-2.174c-1.178-0.812-2.503-1.228-4.291-1.03c-3.155,0.344-5.228,2.925-4.902,5.892l0.003,0.029
		c0.338,3.082,2.947,5.004,6.116,4.656c1.846-0.202,3.269-1.049,4.248-2.054l-0.502-4.579L316.489,368.408z"/>
	<path clip-path="url(#SVGID_2_)" d="M330.976,361.556l-1.826,11.05l2.901-0.699l0.284-1.949l3.841-0.924l1.153,1.604l2.959-0.712
		l-6.651-9.009L330.976,361.556z M332.628,367.614l0.443-3.102l1.791,2.564L332.628,367.614z"/>
	
		<rect x="342.002" y="360.867" transform="matrix(-0.3287 -0.9444 0.9444 -0.3287 119.0479 809.2047)" clip-path="url(#SVGID_2_)" width="10.236" height="2.851"/>
	<polygon clip-path="url(#SVGID_2_)" points="359.938,351.532 362.185,356.455 356.105,353.281 353.698,354.381 357.947,363.692 
		360.503,362.527 358.171,357.419 364.48,360.712 366.741,359.68 362.491,350.366 	"/>
	<path clip-path="url(#SVGID_2_)" d="M188.726,126.458l-2.407,1.663l1.471,2.128c-1.076,1.257-1.73,2.886-1.73,4.667
		c0,3.966,3.226,7.192,7.192,7.192c0.856,0,1.673-0.158,2.435-0.433l2.091,3.025l2.408-1.663l-2.004-2.898
		c1.39-1.312,2.263-3.166,2.263-5.223c0-3.966-3.227-7.193-7.193-7.193c-1.128,0-2.193,0.269-3.144,0.734L188.726,126.458z
		 M193.251,139.183c-2.353,0-4.267-1.914-4.267-4.267c0-0.768,0.22-1.48,0.577-2.103l4.356,6.302
		C193.7,139.15,193.479,139.183,193.251,139.183 M193.251,130.649c2.353,0,4.267,1.914,4.267,4.267c0,1.057-0.401,2.013-1.04,2.759
		l-4.67-6.757C192.262,130.753,192.743,130.649,193.251,130.649"/>
	<path clip-path="url(#SVGID_2_)" d="M422.73,134.916c0-3.966-3.228-7.192-7.194-7.192c-1.128,0-2.193,0.268-3.145,0.733l-1.382-2
		l-2.406,1.664l1.471,2.128c-1.076,1.258-1.73,2.886-1.73,4.667c0,3.966,3.227,7.193,7.192,7.193c0.855,0,1.674-0.158,2.436-0.434
		l2.093,3.026l2.405-1.664l-2.003-2.898C421.855,138.827,422.73,136.974,422.73,134.916 M415.536,139.183
		c-2.353,0-4.267-1.914-4.267-4.267c0-0.768,0.221-1.48,0.576-2.103l4.357,6.303C415.984,139.15,415.764,139.183,415.536,139.183
		 M414.093,130.917c0.453-0.164,0.935-0.269,1.443-0.269c2.354,0,4.268,1.914,4.268,4.267c0,1.057-0.4,2.013-1.04,2.76
		L414.093,130.917z"/>
</g>
</svg>
